<?xml version="1.0" standalone="no"?><!DOCTYPE svg PUBLIC "-//W3C//DTD SVG 1.1//EN" "http://www.w3.org/Graphics/SVG/1.1/DTD/svg11.dtd"><svg t="1513662223934" class="icon" style="" viewBox="0 0 1024 1024" version="1.1" xmlns="http://www.w3.org/2000/svg" p-id="3909" xmlns:xlink="http://www.w3.org/1999/xlink" width="128" height="128"><defs><style type="text/css"></style></defs><path d="M89.070106 166.246325l845.859787 0c12.781094 0 23.154349 11.913331 23.154349 24.695448s-10.373255 24.696472-23.154349 24.696472L89.070106 215.638245c-12.782118 0-23.154349-11.914354-23.154349-24.696472S76.286965 166.246325 89.070106 166.246325z" p-id="3910" fill="#bfbfbf"></path><path d="M89.070106 487.302505l845.859787 0c12.781094 0 23.154349 11.913331 23.154349 24.695448s-10.373255 24.696472-23.154349 24.696472L89.070106 536.694425c-12.782118 0-23.154349-11.914354-23.154349-24.696472S76.286965 487.302505 89.070106 487.302505z" p-id="3911" fill="#bfbfbf"></path><path d="M89.070106 808.358685l845.859787 0c12.781094 0 23.154349 11.914354 23.154349 24.696472s-10.373255 24.698518-23.154349 24.698518L89.070106 857.753675c-12.782118 0-23.154349-11.916401-23.154349-24.698518S76.286965 808.358685 89.070106 808.358685z" p-id="3912" fill="#bfbfbf"></path></svg>